<svg width="40" height="40" viewBox="0 0 40 40" fill="none" xmlns="http://www.w3.org/2000/svg">
<g filter="url(#filter0_d_19_435)">
<rect x="4" width="32" height="32" rx="8" fill="#E84444" shape-rendering="crispEdges"/>
<g clip-path="url(#clip0_19_435)">
<path d="M20 21C22.7614 21 25 18.7614 25 16C25 13.2386 22.7614 11 20 11C17.2386 11 15 13.2386 15 16C15 18.7614 17.2386 21 20 21Z" stroke="#E9E3E3" stroke-width="2" stroke-linecap="round" stroke-linejoin="round"/>
<path d="M20 5V7" stroke="#E9E3E3" stroke-width="2" stroke-linecap="round" stroke-linejoin="round"/>
<path d="M20 25V27" stroke="#E9E3E3" stroke-width="2" stroke-linecap="round" stroke-linejoin="round"/>
<path d="M12.22 8.22L13.64 9.64" stroke="#E9E3E3" stroke-width="2" stroke-linecap="round" stroke-linejoin="round"/>
<path d="M26.36 22.36L27.78 23.78" stroke="#E9E3E3" stroke-width="2" stroke-linecap="round" stroke-linejoin="round"/>
<path d="M9 16H11" stroke="#E9E3E3" stroke-width="2" stroke-linecap="round" stroke-linejoin="round"/>
<path d="M29 16H31" stroke="#E9E3E3" stroke-width="2" stroke-linecap="round" stroke-linejoin="round"/>
<path d="M12.22 23.78L13.64 22.36" stroke="#E9E3E3" stroke-width="2" stroke-linecap="round" stroke-linejoin="round"/>
<path d="M26.36 9.64L27.78 8.22" stroke="#E9E3E3" stroke-width="2" stroke-linecap="round" stroke-linejoin="round"/>
</g>
</g>
<defs>
<filter id="filter0_d_19_435" x="0" y="0" width="40" height="40" filterUnits="userSpaceOnUse" color-interpolation-filters="sRGB">
<feFlood flood-opacity="0" result="BackgroundImageFix"/>
<feColorMatrix in="SourceAlpha" type="matrix" values="0 0 0 0 0 0 0 0 0 0 0 0 0 0 0 0 0 0 127 0" result="hardAlpha"/>
<feOffset dy="4"/>
<feGaussianBlur stdDeviation="2"/>
<feComposite in2="hardAlpha" operator="out"/>
<feColorMatrix type="matrix" values="0 0 0 0 0.9125 0 0 0 0 0.889687 0 0 0 0 0.889687 0 0 0 0.4 0"/>
<feBlend mode="normal" in2="BackgroundImageFix" result="effect1_dropShadow_19_435"/>
<feBlend mode="normal" in="SourceGraphic" in2="effect1_dropShadow_19_435" result="shape"/>
</filter>
<clipPath id="clip0_19_435">
<rect width="24" height="24" fill="white" transform="translate(8 4)"/>
</clipPath>
</defs>
</svg>
