<svg width="40" height="40" viewBox="0 0 40 40" fill="none" xmlns="http://www.w3.org/2000/svg">
<g filter="url(#filter0_d_6_80)">
<rect x="4" width="32" height="32" rx="8" fill="#E9E3E3" shape-rendering="crispEdges"/>
<path d="M29 16.79C28.8427 18.4922 28.2039 20.1144 27.1582 21.4668C26.1126 22.8192 24.7035 23.8458 23.0957 24.4265C21.4879 25.0073 19.748 25.1181 18.0795 24.7461C16.411 24.3741 14.883 23.5345 13.6742 22.3258C12.4655 21.117 11.6259 19.589 11.2539 17.9205C10.8819 16.252 10.9927 14.5121 11.5735 12.9043C12.1542 11.2965 13.1808 9.88737 14.5332 8.84175C15.8856 7.79614 17.5078 7.15731 19.21 7C18.2134 8.34827 17.7338 10.0094 17.8585 11.6814C17.9832 13.3534 18.7039 14.9251 19.8894 16.1106C21.0749 17.2961 22.6466 18.0168 24.3186 18.1415C25.9906 18.2662 27.6517 17.7866 29 16.79Z" stroke="#D01818" stroke-width="2" stroke-linecap="round" stroke-linejoin="round"/>
</g>
<defs>
<filter id="filter0_d_6_80" x="0" y="0" width="40" height="40" filterUnits="userSpaceOnUse" color-interpolation-filters="sRGB">
<feFlood flood-opacity="0" result="BackgroundImageFix"/>
<feColorMatrix in="SourceAlpha" type="matrix" values="0 0 0 0 0 0 0 0 0 0 0 0 0 0 0 0 0 0 127 0" result="hardAlpha"/>
<feOffset dy="4"/>
<feGaussianBlur stdDeviation="2"/>
<feComposite in2="hardAlpha" operator="out"/>
<feColorMatrix type="matrix" values="0 0 0 0 0.816667 0 0 0 0 0.0952778 0 0 0 0 0.0952778 0 0 0 0.3 0"/>
<feBlend mode="normal" in2="BackgroundImageFix" result="effect1_dropShadow_6_80"/>
<feBlend mode="normal" in="SourceGraphic" in2="effect1_dropShadow_6_80" result="shape"/>
</filter>
</defs>
</svg>
