<svg width="354" height="154" viewBox="0 0 354 154" fill="none" xmlns="http://www.w3.org/2000/svg">
<rect width="354" height="154" fill="#060606"/>
<path d="M106.24 93H102.04C101.133 93 100.533 92.8533 100.24 92.56C99.9733 92.2667 99.84 91.6533 99.84 90.72V66.36C99.84 65.4267 99.9733 64.8133 100.24 64.52C100.533 64.2267 101.133 64.08 102.04 64.08H106.24V93ZM118.6 87.4V90.8C118.6 91.7067 118.453 92.3067 118.16 92.6C117.867 92.8667 117.253 93 116.32 93H107.84V87.4H118.6ZM116.2 75.6V78C116.2 78.96 116.107 79.5733 115.92 79.84C115.733 80.08 115.2 80.2 114.32 80.2H107.84V75.6H116.2ZM118.2 64.08V67.48C118.2 68.3867 118.053 68.9867 117.76 69.28C117.467 69.5467 116.853 69.68 115.92 69.68H107.84V64.08H118.2ZM126.764 73H131.564C131.724 73 131.804 73.0933 131.804 73.28V75.72C131.804 75.9067 131.697 76 131.484 76H129.684C129.044 76 128.671 76.12 128.564 76.36C128.457 76.7067 128.404 77.0933 128.404 77.52V89.92C128.404 90.8267 128.097 91.5733 127.484 92.16C126.897 92.72 126.017 93 124.844 93H122.404V77.44C122.404 75.8667 122.751 74.7333 123.444 74.04C124.164 73.3467 125.271 73 126.764 73ZM145.627 73H150.187C150.614 73 150.96 73.1467 151.227 73.44C151.494 73.7333 151.627 74.12 151.627 74.6V88.8C151.627 89.2267 151.72 89.5333 151.907 89.72C152.12 89.9067 152.574 90 153.267 90H155.427V93H149.987C147.08 93 145.627 91.5733 145.627 88.72V73ZM134.787 73H139.347C139.774 73 140.12 73.1467 140.387 73.44C140.654 73.7333 140.787 74.12 140.787 74.6V88.8C140.787 89.2267 140.88 89.5333 141.067 89.72C141.28 89.9067 141.734 90 142.427 90H144.587V93H139.147C136.24 93 134.787 91.5733 134.787 88.72V73ZM156.627 73H161.187C161.614 73 161.96 73.1467 162.227 73.44C162.494 73.7333 162.627 74.12 162.627 74.6V89.92C162.627 90.8267 162.32 91.5733 161.707 92.16C161.12 92.72 160.24 93 159.067 93H156.627V73ZM167.092 73H171.652C172.078 73 172.425 73.1467 172.692 73.44C172.958 73.7333 173.092 74.12 173.092 74.6V88.8C173.092 89.2267 173.185 89.5333 173.372 89.72C173.585 89.9067 174.038 90 174.732 90H176.892V93H171.452C168.545 93 167.092 91.5733 167.092 88.72V73ZM173.492 95.56V97.68C173.492 98.1333 173.558 98.44 173.692 98.6C173.825 98.7867 174.172 98.88 174.732 98.88H176.892V101.88H171.852C168.945 101.88 167.492 100.453 167.492 97.6V96.4C167.492 96 167.532 95.7733 167.612 95.72C167.718 95.6667 167.785 95.6267 167.812 95.6C167.838 95.6 167.905 95.5867 168.012 95.56C168.145 95.56 168.238 95.56 168.292 95.56C170.025 95.56 171.758 95.56 173.492 95.56ZM178.092 73H180.532C181.705 73 182.585 73.2933 183.172 73.88C183.785 74.44 184.092 75.1733 184.092 76.08V98.84C184.092 99.7467 183.785 100.48 183.172 101.04C182.585 101.627 181.705 101.92 180.532 101.92H178.092V73ZM195.695 73H201.295C204.202 73 205.655 74.4267 205.655 77.28V93H201.095C200.668 93 200.322 92.8533 200.055 92.56C199.788 92.2667 199.655 91.88 199.655 91.4V77.2C199.655 76.7733 199.548 76.4667 199.335 76.28C199.148 76.0933 198.708 76 198.015 76H195.695V73ZM188.695 73H191.135C192.308 73 193.188 73.2933 193.775 73.88C194.388 74.44 194.695 75.1733 194.695 76.08V93H190.135C189.708 93 189.362 92.8533 189.095 92.56C188.828 92.2667 188.695 91.88 188.695 91.4V73ZM225.381 93H221.181C220.274 93 219.674 92.8533 219.381 92.56C219.114 92.2667 218.981 91.6533 218.981 90.72V66.36C218.981 65.4267 219.114 64.8133 219.381 64.52C219.674 64.2267 220.274 64.08 221.181 64.08H225.381V93ZM237.741 87.4V90.8C237.741 91.7067 237.594 92.3067 237.301 92.6C237.007 92.8667 236.394 93 235.461 93H226.981V87.4H237.741ZM235.341 75.6V78C235.341 78.96 235.247 79.5733 235.061 79.84C234.874 80.08 234.341 80.2 233.461 80.2H226.981V75.6H235.341ZM237.341 64.08V67.48C237.341 68.3867 237.194 68.9867 236.901 69.28C236.607 69.5467 235.994 69.68 235.061 69.68H226.981V64.08H237.341ZM251.345 76H249.185C248.491 76 248.038 76.0933 247.825 76.28C247.638 76.4667 247.545 76.7733 247.545 77.2V88.84C247.545 89.24 247.638 89.5333 247.825 89.72C248.038 89.9067 248.491 90 249.185 90H251.345V93H247.465C244.825 93 243.198 92.5467 242.585 91.64C242.291 91.2133 242.051 90.8 241.865 90.4C241.705 90 241.598 89.3733 241.545 88.52C241.411 86.9733 241.345 85.2533 241.345 83.36C241.345 81.4667 241.358 80.1067 241.385 79.28C241.411 78.4267 241.491 77.5733 241.625 76.72C241.785 75.84 241.985 75.2133 242.225 74.84C242.465 74.44 242.825 74.08 243.305 73.76C243.785 73.44 244.345 73.24 244.985 73.16C245.625 73.0533 246.451 73 247.465 73H251.345V76ZM252.545 64.08H254.985C256.158 64.08 257.038 64.3733 257.625 64.96C258.238 65.52 258.545 66.2533 258.545 67.16V89.92C258.545 90.8267 258.238 91.5733 257.625 92.16C257.038 92.72 256.158 93 254.985 93H252.545V64.08ZM272.868 76H270.708C269.881 76 269.415 76.1467 269.308 76.44C269.148 76.7867 269.068 77.28 269.068 77.92V88.08C269.068 88.1333 269.068 88.2933 269.068 88.56C269.068 88.8267 269.095 89.0533 269.148 89.24C269.255 89.7467 269.775 90 270.708 90H272.868V93H268.988C267.975 93 267.148 92.96 266.508 92.88C265.868 92.7733 265.308 92.56 264.828 92.24C264.348 91.92 263.988 91.5733 263.748 91.2C263.508 90.8 263.308 90.1733 263.148 89.32C262.961 88.12 262.868 86.44 262.868 84.28C262.868 82.12 262.881 80.6667 262.908 79.92C262.935 79.1467 262.975 78.3333 263.028 77.48C263.108 76.6267 263.228 76 263.388 75.6C263.575 75.2 263.801 74.8 264.068 74.4C264.361 73.9733 264.735 73.68 265.188 73.52C266.175 73.1733 267.441 73 268.988 73H272.868V76ZM281.868 92.72C281.868 92.9067 281.815 93 281.708 93H278.428C276.935 93 275.828 92.6533 275.108 91.96C274.415 91.2667 274.068 90.1333 274.068 88.56V73H275.708C277.388 73 278.535 73.4 279.148 74.2C279.761 74.9733 280.068 76 280.068 77.28V88.48C280.068 89.3067 280.241 89.7733 280.588 89.88C280.775 89.96 281.028 90 281.348 90H281.548C281.761 90 281.868 90.0933 281.868 90.28V92.72ZM292.023 73H297.623C300.53 73 301.983 74.4267 301.983 77.28V93H297.423C296.996 93 296.65 92.8533 296.383 92.56C296.116 92.2667 295.983 91.88 295.983 91.4V77.2C295.983 76.7733 295.876 76.4667 295.663 76.28C295.476 76.0933 295.036 76 294.343 76H292.023V73ZM285.023 64.08H287.463C288.636 64.08 289.516 64.3733 290.103 64.96C290.716 65.52 291.023 66.2533 291.023 67.16V93H286.463C286.036 93 285.69 92.8533 285.423 92.56C285.156 92.2667 285.023 91.88 285.023 91.4V64.08ZM306.547 73.04H308.987C310.16 73.04 311.04 73.3333 311.627 73.92C312.24 74.48 312.547 75.2133 312.547 76.12V93H307.987C307.56 93 307.213 92.8533 306.947 92.56C306.68 92.2667 306.547 91.88 306.547 91.4V73.04ZM306.827 64.52C307.12 64.2267 307.973 64.08 309.387 64.08C310.8 64.08 311.653 64.2267 311.947 64.52C312.24 64.7867 312.387 65.5867 312.387 66.92C312.387 68.2533 312.227 69.0667 311.907 69.36C311.613 69.6533 310.773 69.8 309.387 69.8C308 69.8 307.147 69.6533 306.827 69.36C306.533 69.0667 306.387 68.2533 306.387 66.92C306.387 65.5867 306.533 64.7867 306.827 64.52Z" fill="#E9E3E3"/>
<path d="M65.5 43L95.3779 94.75H35.6221L65.5 43Z" fill="#E7D3D3"/>
<path d="M90 77C90 90.8071 78.8071 102 65 102C51.1929 102 40 90.8071 40 77C40 63.1929 51.1929 52 65 52C78.8071 52 90 63.1929 90 77Z" fill="#D01818"/>
<line x1="41.7142" y1="55.3001" x2="90.7142" y2="105.3" stroke="#140606" stroke-width="2"/>
<line x1="90.6713" y1="56.7411" x2="38.2817" y2="104.197" stroke="#140606" stroke-width="2"/>
</svg>
