<svg width="284" height="69" viewBox="0 0 284 69" fill="none" xmlns="http://www.w3.org/2000/svg">
<path d="M75.24 50H71.04C70.1333 50 69.5333 49.8533 69.24 49.56C68.9733 49.2667 68.84 48.6533 68.84 47.72V23.36C68.84 22.4267 68.9733 21.8133 69.24 21.52C69.5333 21.2267 70.1333 21.08 71.04 21.08H75.24V50ZM87.6 44.4V47.8C87.6 48.7067 87.4533 49.3067 87.16 49.6C86.8667 49.8667 86.2533 50 85.32 50H76.84V44.4H87.6ZM85.2 32.6V35C85.2 35.96 85.1067 36.5733 84.92 36.84C84.7333 37.08 84.2 37.2 83.32 37.2H76.84V32.6H85.2ZM87.2 21.08V24.48C87.2 25.3867 87.0533 25.9867 86.76 26.28C86.4667 26.5467 85.8533 26.68 84.92 26.68H76.84V21.08H87.2ZM95.7641 30H100.564C100.724 30 100.804 30.0933 100.804 30.28V32.72C100.804 32.9067 100.697 33 100.484 33H98.6841C98.0441 33 97.6707 33.12 97.5641 33.36C97.4574 33.7067 97.4041 34.0933 97.4041 34.52V46.92C97.4041 47.8267 97.0974 48.5733 96.4841 49.16C95.8974 49.72 95.0174 50 93.8441 50H91.4041V34.44C91.4041 32.8667 91.7507 31.7333 92.4441 31.04C93.1641 30.3467 94.2707 30 95.7641 30ZM114.627 30H119.187C119.614 30 119.96 30.1467 120.227 30.44C120.494 30.7333 120.627 31.12 120.627 31.6V45.8C120.627 46.2267 120.72 46.5333 120.907 46.72C121.12 46.9067 121.574 47 122.267 47H124.427V50H118.987C116.08 50 114.627 48.5733 114.627 45.72V30ZM103.787 30H108.347C108.774 30 109.12 30.1467 109.387 30.44C109.654 30.7333 109.787 31.12 109.787 31.6V45.8C109.787 46.2267 109.88 46.5333 110.067 46.72C110.28 46.9067 110.734 47 111.427 47H113.587V50H108.147C105.24 50 103.787 48.5733 103.787 45.72V30ZM125.627 30H130.187C130.614 30 130.96 30.1467 131.227 30.44C131.494 30.7333 131.627 31.12 131.627 31.6V46.92C131.627 47.8267 131.32 48.5733 130.707 49.16C130.12 49.72 129.24 50 128.067 50H125.627V30ZM136.092 30H140.652C141.078 30 141.425 30.1467 141.692 30.44C141.958 30.7333 142.092 31.12 142.092 31.6V45.8C142.092 46.2267 142.185 46.5333 142.372 46.72C142.585 46.9067 143.038 47 143.732 47H145.892V50H140.452C137.545 50 136.092 48.5733 136.092 45.72V30ZM142.492 52.56V54.68C142.492 55.1333 142.558 55.44 142.692 55.6C142.825 55.7867 143.172 55.88 143.732 55.88H145.892V58.88H140.852C137.945 58.88 136.492 57.4533 136.492 54.6V53.4C136.492 53 136.532 52.7733 136.612 52.72C136.718 52.6667 136.785 52.6267 136.812 52.6C136.838 52.6 136.905 52.5867 137.012 52.56C137.145 52.56 137.238 52.56 137.292 52.56C139.025 52.56 140.758 52.56 142.492 52.56ZM147.092 30H149.532C150.705 30 151.585 30.2933 152.172 30.88C152.785 31.44 153.092 32.1733 153.092 33.08V55.84C153.092 56.7467 152.785 57.48 152.172 58.04C151.585 58.6267 150.705 58.92 149.532 58.92H147.092V30ZM164.695 30H170.295C173.202 30 174.655 31.4267 174.655 34.28V50H170.095C169.668 50 169.322 49.8533 169.055 49.56C168.788 49.2667 168.655 48.88 168.655 48.4V34.2C168.655 33.7733 168.548 33.4667 168.335 33.28C168.148 33.0933 167.708 33 167.015 33H164.695V30ZM157.695 30H160.135C161.308 30 162.188 30.2933 162.775 30.88C163.388 31.44 163.695 32.1733 163.695 33.08V50H159.135C158.708 50 158.362 49.8533 158.095 49.56C157.828 49.2667 157.695 48.88 157.695 48.4V30ZM194.381 50H190.181C189.274 50 188.674 49.8533 188.381 49.56C188.114 49.2667 187.981 48.6533 187.981 47.72V23.36C187.981 22.4267 188.114 21.8133 188.381 21.52C188.674 21.2267 189.274 21.08 190.181 21.08H194.381V50ZM206.741 44.4V47.8C206.741 48.7067 206.594 49.3067 206.301 49.6C206.007 49.8667 205.394 50 204.461 50H195.981V44.4H206.741ZM204.341 32.6V35C204.341 35.96 204.247 36.5733 204.061 36.84C203.874 37.08 203.341 37.2 202.461 37.2H195.981V32.6H204.341ZM206.341 21.08V24.48C206.341 25.3867 206.194 25.9867 205.901 26.28C205.607 26.5467 204.994 26.68 204.061 26.68H195.981V21.08H206.341ZM220.345 33H218.185C217.491 33 217.038 33.0933 216.825 33.28C216.638 33.4667 216.545 33.7733 216.545 34.2V45.84C216.545 46.24 216.638 46.5333 216.825 46.72C217.038 46.9067 217.491 47 218.185 47H220.345V50H216.465C213.825 50 212.198 49.5467 211.585 48.64C211.291 48.2133 211.051 47.8 210.865 47.4C210.705 47 210.598 46.3733 210.545 45.52C210.411 43.9733 210.345 42.2533 210.345 40.36C210.345 38.4667 210.358 37.1067 210.385 36.28C210.411 35.4267 210.491 34.5733 210.625 33.72C210.785 32.84 210.985 32.2133 211.225 31.84C211.465 31.44 211.825 31.08 212.305 30.76C212.785 30.44 213.345 30.24 213.985 30.16C214.625 30.0533 215.451 30 216.465 30H220.345V33ZM221.545 21.08H223.985C225.158 21.08 226.038 21.3733 226.625 21.96C227.238 22.52 227.545 23.2533 227.545 24.16V46.92C227.545 47.8267 227.238 48.5733 226.625 49.16C226.038 49.72 225.158 50 223.985 50H221.545V21.08ZM241.868 33H239.708C238.881 33 238.415 33.1467 238.308 33.44C238.148 33.7867 238.068 34.28 238.068 34.92V45.08C238.068 45.1333 238.068 45.2933 238.068 45.56C238.068 45.8267 238.095 46.0533 238.148 46.24C238.255 46.7467 238.775 47 239.708 47H241.868V50H237.988C236.975 50 236.148 49.96 235.508 49.88C234.868 49.7733 234.308 49.56 233.828 49.24C233.348 48.92 232.988 48.5733 232.748 48.2C232.508 47.8 232.308 47.1733 232.148 46.32C231.961 45.12 231.868 43.44 231.868 41.28C231.868 39.12 231.881 37.6667 231.908 36.92C231.935 36.1467 231.975 35.3333 232.028 34.48C232.108 33.6267 232.228 33 232.388 32.6C232.575 32.2 232.801 31.8 233.068 31.4C233.361 30.9733 233.735 30.68 234.188 30.52C235.175 30.1733 236.441 30 237.988 30H241.868V33ZM250.868 49.72C250.868 49.9067 250.815 50 250.708 50H247.428C245.935 50 244.828 49.6533 244.108 48.96C243.415 48.2667 243.068 47.1333 243.068 45.56V30H244.708C246.388 30 247.535 30.4 248.148 31.2C248.761 31.9733 249.068 33 249.068 34.28V45.48C249.068 46.3067 249.241 46.7733 249.588 46.88C249.775 46.96 250.028 47 250.348 47H250.548C250.761 47 250.868 47.0933 250.868 47.28V49.72ZM261.023 30H266.623C269.53 30 270.983 31.4267 270.983 34.28V50H266.423C265.996 50 265.65 49.8533 265.383 49.56C265.116 49.2667 264.983 48.88 264.983 48.4V34.2C264.983 33.7733 264.876 33.4667 264.663 33.28C264.476 33.0933 264.036 33 263.343 33H261.023V30ZM254.023 21.08H256.463C257.636 21.08 258.516 21.3733 259.103 21.96C259.716 22.52 260.023 23.2533 260.023 24.16V50H255.463C255.036 50 254.69 49.8533 254.423 49.56C254.156 49.2667 254.023 48.88 254.023 48.4V21.08ZM275.547 30.04H277.987C279.16 30.04 280.04 30.3333 280.627 30.92C281.24 31.48 281.547 32.2133 281.547 33.12V50H276.987C276.56 50 276.213 49.8533 275.947 49.56C275.68 49.2667 275.547 48.88 275.547 48.4V30.04ZM275.827 21.52C276.12 21.2267 276.973 21.08 278.387 21.08C279.8 21.08 280.653 21.2267 280.947 21.52C281.24 21.7867 281.387 22.5867 281.387 23.92C281.387 25.2533 281.227 26.0667 280.907 26.36C280.613 26.6533 279.773 26.8 278.387 26.8C277 26.8 276.147 26.6533 275.827 26.36C275.533 26.0667 275.387 25.2533 275.387 23.92C275.387 22.5867 275.533 21.7867 275.827 21.52Z" fill="black"/>
<path d="M34.5 0L64.3779 51.75H4.62212L34.5 0Z" fill="#120606"/>
<path d="M59 34C59 47.8071 47.8071 59 34 59C20.1929 59 9 47.8071 9 34C9 20.1929 20.1929 9 34 9C47.8071 9 59 20.1929 59 34Z" fill="#D01818"/>
<line x1="10.7142" y1="12.3001" x2="59.7142" y2="62.3001" stroke="white" stroke-width="2"/>
<line x1="51.7076" y1="16.7066" x2="7.31799" y2="61.1627" stroke="white" stroke-width="2"/>
</svg>
