<svg width="222" height="48" viewBox="0 0 222 48" fill="none" xmlns="http://www.w3.org/2000/svg">
<rect width="222" height="48" rx="24" fill="#E9E3E3"/>
<path d="M27.767 31L24.358 17.9091H28.5426L30.3068 26.2955H30.4176L32.3097 17.9091H36.392L38.3352 26.2358H38.446L40.1591 17.9091H44.3438L40.9261 31H36.4688L34.4233 23.3722H34.2784L32.233 31H27.767ZM50.1839 23.5341V31H46.0163V13.5455H50.0476V20.3125H50.1925C50.4879 19.5057 50.9709 18.875 51.6413 18.4205C52.3175 17.9659 53.1442 17.7386 54.1214 17.7386C55.0419 17.7386 55.843 17.9432 56.5249 18.3523C57.2067 18.7557 57.7351 19.3267 58.1101 20.0653C58.4908 20.804 58.6783 21.6676 58.6726 22.6562V31H54.505V23.4744C54.5107 22.7472 54.3288 22.179 53.9595 21.7699C53.5902 21.3608 53.0703 21.1562 52.3999 21.1562C51.9624 21.1562 51.576 21.2528 51.2408 21.446C50.9112 21.6335 50.6527 21.9034 50.4652 22.2557C50.2834 22.608 50.1896 23.0341 50.1839 23.5341ZM64.9645 31.2216C64.1293 31.2216 63.3878 31.0824 62.7401 30.804C62.098 30.5199 61.5895 30.0937 61.2145 29.5256C60.8452 28.9517 60.6605 28.233 60.6605 27.3693C60.6605 26.642 60.7884 26.0284 61.044 25.5284C61.2997 25.0284 61.652 24.6222 62.1009 24.3097C62.5497 23.9972 63.0668 23.7614 63.652 23.6023C64.2372 23.4375 64.8622 23.3267 65.527 23.2699C66.2713 23.2017 66.8707 23.1307 67.3253 23.0568C67.7798 22.9773 68.1094 22.8665 68.3139 22.7244C68.5241 22.5767 68.6293 22.3693 68.6293 22.1023V22.0597C68.6293 21.6222 68.4787 21.2841 68.1776 21.0455C67.8764 20.8068 67.4702 20.6875 66.9588 20.6875C66.4077 20.6875 65.9645 20.8068 65.6293 21.0455C65.294 21.2841 65.081 21.6136 64.9901 22.0341L61.1463 21.8977C61.2599 21.1023 61.5526 20.392 62.0241 19.767C62.5014 19.1364 63.1548 18.642 63.9844 18.2841C64.8196 17.9205 65.8224 17.7386 66.9929 17.7386C67.8281 17.7386 68.598 17.8381 69.3026 18.0369C70.0071 18.2301 70.6207 18.5142 71.1435 18.8892C71.6662 19.2585 72.0696 19.7131 72.3537 20.2528C72.6435 20.7926 72.7884 21.4091 72.7884 22.1023V31H68.8679V29.1761H68.7656C68.5327 29.6193 68.2344 29.9943 67.8707 30.3011C67.5128 30.608 67.0895 30.8381 66.6009 30.9915C66.1179 31.1449 65.5724 31.2216 64.9645 31.2216ZM66.2514 28.4943C66.7003 28.4943 67.1037 28.4034 67.4616 28.2216C67.8253 28.0398 68.1151 27.7898 68.331 27.4716C68.5469 27.1477 68.6548 26.7727 68.6548 26.3466V25.1023C68.5355 25.1648 68.3906 25.2216 68.2202 25.2727C68.0554 25.3239 67.8736 25.3722 67.6747 25.4176C67.4759 25.4631 67.2713 25.5028 67.0611 25.5369C66.8509 25.571 66.6491 25.6023 66.456 25.6307C66.0639 25.6932 65.7287 25.7898 65.4503 25.9205C65.1776 26.0511 64.9673 26.2216 64.8196 26.4318C64.6776 26.6364 64.6065 26.8807 64.6065 27.1648C64.6065 27.5966 64.7599 27.9261 65.0668 28.1534C65.3793 28.3807 65.7741 28.4943 66.2514 28.4943ZM82.7259 17.9091V20.9773H74.4673V17.9091H82.7259ZM76.1974 14.7727H80.3651V26.8835C80.3651 27.1392 80.4048 27.3466 80.4844 27.5057C80.5696 27.6591 80.6918 27.7699 80.8509 27.8381C81.0099 27.9006 81.2003 27.9318 81.4219 27.9318C81.581 27.9318 81.7486 27.9176 81.9247 27.8892C82.1065 27.8551 82.2429 27.8267 82.3338 27.804L82.9645 30.8125C82.7656 30.8693 82.4844 30.9403 82.1207 31.0256C81.7628 31.1108 81.3338 31.1648 80.8338 31.1875C79.8565 31.233 79.0185 31.1193 78.3196 30.8466C77.6264 30.5682 77.0952 30.1364 76.7259 29.5511C76.3622 28.9659 76.1861 28.2301 76.1974 27.3438V14.7727ZM96.1172 21.9062L92.2905 22.0085C92.2507 21.7358 92.1428 21.4943 91.9666 21.2841C91.7905 21.0682 91.5604 20.9006 91.2763 20.7812C90.9979 20.6562 90.674 20.5938 90.3047 20.5938C89.8217 20.5938 89.4098 20.6903 89.0689 20.8835C88.7337 21.0767 88.5689 21.3381 88.5746 21.6676C88.5689 21.9233 88.6712 22.1449 88.8814 22.3324C89.0973 22.5199 89.4808 22.6705 90.032 22.7841L92.5547 23.2614C93.8615 23.5114 94.8331 23.9261 95.4695 24.5057C96.1115 25.0852 96.4354 25.8523 96.4411 26.8068C96.4354 27.7045 96.1683 28.4858 95.6399 29.1506C95.1172 29.8153 94.4013 30.3324 93.4922 30.7017C92.5831 31.0653 91.5433 31.2472 90.3729 31.2472C88.5036 31.2472 87.0291 30.8636 85.9496 30.0966C84.8757 29.3239 84.2621 28.2898 84.1087 26.9943L88.2251 26.892C88.3161 27.3693 88.5518 27.733 88.9325 27.983C89.3132 28.233 89.799 28.358 90.3899 28.358C90.924 28.358 91.3587 28.2585 91.6939 28.0597C92.0291 27.8608 92.1996 27.5966 92.2053 27.267C92.1996 26.9716 92.0689 26.7358 91.8132 26.5597C91.5575 26.3778 91.157 26.2358 90.6115 26.1335L88.3274 25.6989C87.0149 25.4602 86.0376 25.0199 85.3956 24.3778C84.7536 23.7301 84.4354 22.9062 84.4411 21.9062C84.4354 21.0312 84.6683 20.2841 85.1399 19.6648C85.6115 19.0398 86.282 18.5625 87.1513 18.233C88.0206 17.9034 89.0462 17.7386 90.228 17.7386C92.0007 17.7386 93.3984 18.1108 94.4212 18.8551C95.4439 19.5937 96.0092 20.6108 96.1172 21.9062ZM102.183 31.2216C101.348 31.2216 100.607 31.0824 99.9588 30.804C99.3168 30.5199 98.8082 30.0937 98.4332 29.5256C98.0639 28.9517 97.8793 28.233 97.8793 27.3693C97.8793 26.642 98.0071 26.0284 98.2628 25.5284C98.5185 25.0284 98.8707 24.6222 99.3196 24.3097C99.7685 23.9972 100.286 23.7614 100.871 23.6023C101.456 23.4375 102.081 23.3267 102.746 23.2699C103.49 23.2017 104.089 23.1307 104.544 23.0568C104.999 22.9773 105.328 22.8665 105.533 22.7244C105.743 22.5767 105.848 22.3693 105.848 22.1023V22.0597C105.848 21.6222 105.697 21.2841 105.396 21.0455C105.095 20.8068 104.689 20.6875 104.178 20.6875C103.626 20.6875 103.183 20.8068 102.848 21.0455C102.513 21.2841 102.3 21.6136 102.209 22.0341L98.3651 21.8977C98.4787 21.1023 98.7713 20.392 99.2429 19.767C99.7202 19.1364 100.374 18.642 101.203 18.2841C102.038 17.9205 103.041 17.7386 104.212 17.7386C105.047 17.7386 105.817 17.8381 106.521 18.0369C107.226 18.2301 107.839 18.5142 108.362 18.8892C108.885 19.2585 109.288 19.7131 109.572 20.2528C109.862 20.7926 110.007 21.4091 110.007 22.1023V31H106.087V29.1761H105.984C105.751 29.6193 105.453 29.9943 105.089 30.3011C104.732 30.608 104.308 30.8381 103.82 30.9915C103.337 31.1449 102.791 31.2216 102.183 31.2216ZM103.47 28.4943C103.919 28.4943 104.322 28.4034 104.68 28.2216C105.044 28.0398 105.334 27.7898 105.55 27.4716C105.766 27.1477 105.874 26.7727 105.874 26.3466V25.1023C105.754 25.1648 105.609 25.2216 105.439 25.2727C105.274 25.3239 105.092 25.3722 104.893 25.4176C104.695 25.4631 104.49 25.5028 104.28 25.5369C104.07 25.571 103.868 25.6023 103.675 25.6307C103.283 25.6932 102.947 25.7898 102.669 25.9205C102.396 26.0511 102.186 26.2216 102.038 26.4318C101.896 26.6364 101.825 26.8807 101.825 27.1648C101.825 27.5966 101.979 27.9261 102.286 28.1534C102.598 28.3807 102.993 28.4943 103.47 28.4943ZM112.555 35.9091V17.9091H116.68V20.1506H116.808C116.979 19.7528 117.22 19.3693 117.533 19C117.851 18.6307 118.254 18.3295 118.743 18.0966C119.237 17.858 119.828 17.7386 120.516 17.7386C121.425 17.7386 122.274 17.9773 123.064 18.4545C123.859 18.9318 124.501 19.6676 124.99 20.6619C125.479 21.6562 125.723 22.9233 125.723 24.4631C125.723 25.946 125.487 27.1875 125.016 28.1875C124.55 29.1875 123.919 29.9375 123.124 30.4375C122.334 30.9375 121.456 31.1875 120.49 31.1875C119.831 31.1875 119.26 31.0795 118.777 30.8636C118.294 30.6477 117.888 30.3636 117.558 30.0114C117.234 29.6591 116.984 29.2812 116.808 28.8778H116.723V35.9091H112.555ZM116.638 24.4545C116.638 25.1591 116.732 25.7727 116.919 26.2955C117.112 26.8182 117.388 27.2244 117.746 27.5142C118.109 27.7983 118.544 27.9403 119.05 27.9403C119.561 27.9403 119.996 27.7983 120.354 27.5142C120.712 27.2244 120.982 26.8182 121.163 26.2955C121.351 25.7727 121.445 25.1591 121.445 24.4545C121.445 23.75 121.351 23.1392 121.163 22.6222C120.982 22.1051 120.712 21.7045 120.354 21.4205C120.001 21.1364 119.567 20.9943 119.05 20.9943C118.538 20.9943 118.104 21.1335 117.746 21.4119C117.388 21.6903 117.112 22.0881 116.919 22.6051C116.732 23.1222 116.638 23.7386 116.638 24.4545ZM127.907 35.9091V17.9091H132.032V20.1506H132.16C132.33 19.7528 132.572 19.3693 132.884 19C133.202 18.6307 133.606 18.3295 134.094 18.0966C134.589 17.858 135.18 17.7386 135.867 17.7386C136.776 17.7386 137.626 17.9773 138.415 18.4545C139.211 18.9318 139.853 19.6676 140.342 20.6619C140.83 21.6562 141.075 22.9233 141.075 24.4631C141.075 25.946 140.839 27.1875 140.367 28.1875C139.901 29.1875 139.271 29.9375 138.475 30.4375C137.685 30.9375 136.808 31.1875 135.842 31.1875C135.183 31.1875 134.612 31.0795 134.129 30.8636C133.646 30.6477 133.239 30.3636 132.91 30.0114C132.586 29.6591 132.336 29.2812 132.16 28.8778H132.075V35.9091H127.907ZM131.989 24.4545C131.989 25.1591 132.083 25.7727 132.271 26.2955C132.464 26.8182 132.739 27.2244 133.097 27.5142C133.461 27.7983 133.896 27.9403 134.401 27.9403C134.913 27.9403 135.347 27.7983 135.705 27.5142C136.063 27.2244 136.333 26.8182 136.515 26.2955C136.702 25.7727 136.796 25.1591 136.796 24.4545C136.796 23.75 136.702 23.1392 136.515 22.6222C136.333 22.1051 136.063 21.7045 135.705 21.4205C135.353 21.1364 134.918 20.9943 134.401 20.9943C133.89 20.9943 133.455 21.1335 133.097 21.4119C132.739 21.6903 132.464 22.0881 132.271 22.6051C132.083 23.1222 131.989 23.7386 131.989 24.4545Z" fill="black"/>
<g filter="url(#filter0_d_19_257)">
<rect x="166" y="8" width="32" height="32" rx="8" fill="#D01818" shape-rendering="crispEdges"/>
<path d="M191 23.5C191.003 24.8199 190.695 26.1219 190.1 27.3C189.394 28.7117 188.31 29.8992 186.967 30.7293C185.625 31.5594 184.078 31.9994 182.5 32C181.18 32.0034 179.878 31.6951 178.7 31.1L173 33L174.9 27.3C174.305 26.1219 173.997 24.8199 174 23.5C174.001 21.9218 174.441 20.3749 175.271 19.0326C176.101 17.6903 177.288 16.6056 178.7 15.9C179.878 15.3049 181.18 14.9966 182.5 15H183C185.084 15.115 187.053 15.9948 188.529 17.4709C190.005 18.947 190.885 20.9157 191 23V23.5Z" stroke="#140606" stroke-width="2" stroke-linecap="round" stroke-linejoin="round"/>
</g>
<defs>
<filter id="filter0_d_19_257" x="162" y="8" width="40" height="40" filterUnits="userSpaceOnUse" color-interpolation-filters="sRGB">
<feFlood flood-opacity="0" result="BackgroundImageFix"/>
<feColorMatrix in="SourceAlpha" type="matrix" values="0 0 0 0 0 0 0 0 0 0 0 0 0 0 0 0 0 0 127 0" result="hardAlpha"/>
<feOffset dy="4"/>
<feGaussianBlur stdDeviation="2"/>
<feComposite in2="hardAlpha" operator="out"/>
<feColorMatrix type="matrix" values="0 0 0 0 0.816667 0 0 0 0 0.0952778 0 0 0 0 0.0952778 0 0 0 0.3 0"/>
<feBlend mode="normal" in2="BackgroundImageFix" result="effect1_dropShadow_19_257"/>
<feBlend mode="normal" in="SourceGraphic" in2="effect1_dropShadow_19_257" result="shape"/>
</filter>
</defs>
</svg>
