<svg width="40" height="40" viewBox="0 0 40 40" fill="none" xmlns="http://www.w3.org/2000/svg">
<g filter="url(#filter0_d_6_77)">
<rect x="4" width="32" height="32" rx="8" fill="#E9E3E3" shape-rendering="crispEdges"/>
<path d="M24 12C25.5913 12 27.1174 12.6321 28.2426 13.7574C29.3679 14.8826 30 16.4087 30 18V25H26V18C26 17.4696 25.7893 16.9609 25.4142 16.5858C25.0391 16.2107 24.5304 16 24 16C23.4696 16 22.9609 16.2107 22.5858 16.5858C22.2107 16.9609 22 17.4696 22 18V25H18V18C18 16.4087 18.6321 14.8826 19.7574 13.7574C20.8826 12.6321 22.4087 12 24 12Z" stroke="#D01818" stroke-width="2" stroke-linecap="round" stroke-linejoin="round"/>
<path d="M14 13H10V25H14V13Z" stroke="#D01818" stroke-width="2" stroke-linecap="round" stroke-linejoin="round"/>
<path d="M12 10C13.1046 10 14 9.10457 14 8C14 6.89543 13.1046 6 12 6C10.8954 6 10 6.89543 10 8C10 9.10457 10.8954 10 12 10Z" stroke="#D01818" stroke-width="2" stroke-linecap="round" stroke-linejoin="round"/>
</g>
<defs>
<filter id="filter0_d_6_77" x="0" y="0" width="40" height="40" filterUnits="userSpaceOnUse" color-interpolation-filters="sRGB">
<feFlood flood-opacity="0" result="BackgroundImageFix"/>
<feColorMatrix in="SourceAlpha" type="matrix" values="0 0 0 0 0 0 0 0 0 0 0 0 0 0 0 0 0 0 127 0" result="hardAlpha"/>
<feOffset dy="4"/>
<feGaussianBlur stdDeviation="2"/>
<feComposite in2="hardAlpha" operator="out"/>
<feColorMatrix type="matrix" values="0 0 0 0 0.816667 0 0 0 0 0.0952778 0 0 0 0 0.0952778 0 0 0 0.3 0"/>
<feBlend mode="normal" in2="BackgroundImageFix" result="effect1_dropShadow_6_77"/>
<feBlend mode="normal" in="SourceGraphic" in2="effect1_dropShadow_6_77" result="shape"/>
</filter>
</defs>
</svg>
