<svg width="40" height="40" viewBox="0 0 40 40" fill="none" xmlns="http://www.w3.org/2000/svg">
<g filter="url(#filter0_d_6_79)">
<rect x="4" width="32" height="32" rx="8" fill="#E9E3E3" shape-rendering="crispEdges"/>
<path d="M20 26C25.5228 26 30 21.5228 30 16C30 10.4772 25.5228 6 20 6C14.4772 6 10 10.4772 10 16C10 21.5228 14.4772 26 20 26Z" stroke="#D01818" stroke-width="2" stroke-linecap="round" stroke-linejoin="round"/>
<path d="M16.56 6.75C20.93 12.78 22.58 16.17 24.59 24.47M27.13 9.09C23.41 13.44 18.19 14.75 10.25 14.94M29.75 16.84C26.25 15.91 23.12 16.02 20.81 16.84C18.23 17.76 15.8 19.7 13.37 23.16" stroke="#D01818" stroke-width="2" stroke-linecap="round" stroke-linejoin="round"/>
</g>
<defs>
<filter id="filter0_d_6_79" x="0" y="0" width="40" height="40" filterUnits="userSpaceOnUse" color-interpolation-filters="sRGB">
<feFlood flood-opacity="0" result="BackgroundImageFix"/>
<feColorMatrix in="SourceAlpha" type="matrix" values="0 0 0 0 0 0 0 0 0 0 0 0 0 0 0 0 0 0 127 0" result="hardAlpha"/>
<feOffset dy="4"/>
<feGaussianBlur stdDeviation="2"/>
<feComposite in2="hardAlpha" operator="out"/>
<feColorMatrix type="matrix" values="0 0 0 0 0.816667 0 0 0 0 0.0952778 0 0 0 0 0.0952778 0 0 0 0.3 0"/>
<feBlend mode="normal" in2="BackgroundImageFix" result="effect1_dropShadow_6_79"/>
<feBlend mode="normal" in="SourceGraphic" in2="effect1_dropShadow_6_79" result="shape"/>
</filter>
</defs>
</svg>
